<svg width="484" height="112" viewBox="0 0 484 112" fill="none" xmlns="http://www.w3.org/2000/svg">
<g clip-path="url(#clip0_2454_30504)">
<path d="M21.4845 0.104938L102.722 2.57024e-05C117.585 -0.0232882 127.108 15.8185 120.114 28.9326L81.8793 100.623C74.0225 115.346 53.1215 115.882 44.5303 101.579C39.0516 92.463 37.8975 81.3889 41.383 71.3406C43.1781 66.1649 46.5936 61.7119 51.1282 58.6462L53.378 57.1308C54.5437 56.3381 56.1523 56.8626 56.6186 58.1915L63.7993 78.4979C64.6153 80.8177 67.3547 81.7969 69.4646 80.5379C70.7352 79.7802 71.4579 78.3581 71.3414 76.8893L69.0449 48.9359C68.975 48.1199 69.383 47.3389 70.0824 46.9076L88.3372 35.9384C91.0883 34.2831 92.4172 31.0192 91.6012 27.9184C91.368 27.0558 90.9017 26.2631 90.249 25.657C87.8942 23.4771 84.3855 23.1158 81.6345 24.7711L63.3913 35.7402C62.6919 36.1599 61.806 36.1482 61.1182 35.7053L37.5129 20.5629C36.2656 19.7586 34.6802 19.7352 33.4096 20.5046C31.2997 21.7752 30.88 24.6545 32.547 26.4613L47.1065 42.3381C48.0624 43.3755 47.771 45.0425 46.5237 45.6953L44.1223 46.9659C39.2847 49.5304 33.7593 50.4513 28.3505 49.612C17.8476 47.9684 8.60358 41.7436 3.12481 32.6278C-5.48969 18.3364 4.79175 0.116595 21.4845 0.104938Z" fill="#00B2E2"/>
<path d="M479.241 56.1762L474.17 56.9572C472.806 56.9572 471.629 56.3743 470.556 55.197C468.994 53.3435 466.465 52.3643 462.851 52.3643C460.8 52.3643 459.144 52.749 457.78 53.53C456.417 54.311 455.729 55.3835 455.729 56.7474C455.729 58.5076 457.198 59.8714 460.217 60.8389L470.65 64.3477C475.336 66.003 478.646 68.0546 480.791 70.4909C482.843 72.9272 483.915 75.9464 483.915 79.56C483.915 84.829 481.969 88.8273 478.262 91.4618C474.462 94.1895 469.682 95.4601 463.83 95.4601C458.655 95.4601 454.377 94.4809 450.961 92.5342C447.546 90.5875 445.203 87.953 443.839 84.4443C443.349 83.4651 443.454 82.5908 444.037 81.6116C444.62 80.7374 445.599 80.1545 446.87 79.9563L451.742 79.2686C453.106 79.2686 454.283 79.9563 455.158 81.122C456.813 83.6632 459.832 84.9222 464.133 84.9222C466.477 84.9222 468.423 84.5375 469.985 83.6516C471.547 82.7773 472.328 81.5067 472.328 79.9447C472.328 77.998 470.382 76.4359 466.675 75.0721L456.242 71.7615C451.952 70.3976 448.828 68.5442 446.974 66.3061C445.016 64.1612 444.142 61.2353 444.142 57.6216C444.142 52.3527 445.89 48.3543 449.597 45.7199C453.211 43.1787 457.885 41.8148 463.737 41.8148C473.098 41.8148 479.148 45.0321 482.073 51.4668C482.458 52.5392 482.365 53.5184 481.782 54.4859C481.199 55.4651 480.418 55.943 479.241 56.1412M425.561 63.6483C424.581 60.5242 422.728 57.8897 420.198 55.943C417.564 53.9963 414.638 53.0171 411.327 53.0171C408.017 53.0171 405.277 53.9963 402.748 55.943C400.207 57.8897 398.458 60.5242 397.584 63.6483H425.572H425.561ZM433.755 73.1021H397.479C398.353 76.4126 400.113 79.152 402.841 81.192C405.569 83.2436 408.693 84.2111 412.295 84.2111C416.293 84.2111 419.709 83.0454 422.53 80.5975C423.404 79.8165 424.383 79.4318 425.549 79.4318C425.934 79.4318 426.33 79.525 426.516 79.525L432.17 81.1803C433.242 81.4717 433.919 82.0546 434.222 83.0338C434.513 84.013 434.315 84.8872 433.639 85.6683C428.37 92.1961 421.259 95.4251 412.283 95.4251C404.485 95.4251 397.945 92.8839 392.688 87.8248C387.419 82.754 384.889 76.3194 384.889 68.6141C384.889 60.9089 387.431 54.5675 392.49 49.4967C397.561 44.426 403.902 41.7915 411.502 41.7915C419.103 41.7915 425.735 44.5192 430.806 49.7881C435.784 55.0571 438.22 61.4917 438.115 69.0921C438.115 70.2578 437.625 71.1437 436.844 71.9247C435.97 72.7057 434.898 73.0904 433.72 73.0904L433.755 73.1021ZM364.187 89.9697V24.8772C364.187 23.8048 364.571 22.8256 365.352 22.0446C366.133 21.2636 367.008 20.8789 368.185 20.8789H372.277C373.442 20.8789 374.421 21.2636 375.202 22.0446C375.983 22.8256 376.368 23.8048 376.368 24.8772V90.0163C376.368 91.182 375.983 92.0679 375.202 92.8489C374.421 93.63 373.442 94.0146 372.277 94.0146H368.185C367.019 94.0146 366.133 93.63 365.352 92.8489C364.571 92.0679 364.187 91.1936 364.187 90.0163V89.9697ZM339.964 30.9738C339.964 28.8289 340.651 26.9755 342.108 25.5184C343.565 24.0613 345.419 23.2802 347.669 23.2802C349.919 23.2802 351.667 24.0613 353.124 25.5184C354.581 26.9755 355.362 28.8289 355.362 30.9738C355.362 33.1187 354.581 35.0654 353.217 36.5342C351.76 37.9913 349.907 38.6791 347.657 38.6791C345.407 38.6791 343.565 37.9913 342.097 36.5342C340.64 35.0654 339.952 33.2236 339.952 30.9738H339.964ZM341.619 89.9697V47.2586C341.619 46.1862 342.003 45.207 342.784 44.426C343.565 43.6449 344.44 43.2603 345.617 43.2603H349.709C350.874 43.2603 351.854 43.6449 352.635 44.426C353.416 45.207 353.8 46.1862 353.8 47.2586V89.9697C353.8 91.1354 353.416 92.0213 352.635 92.8023C351.854 93.5833 350.874 93.968 349.709 93.968H345.617C344.451 93.968 343.565 93.5833 342.784 92.8023C342.003 92.0213 341.619 91.147 341.619 89.9697ZM252.49 89.9697V47.2586C252.49 46.1862 252.874 45.207 253.655 44.426C254.436 43.6449 255.311 43.2603 256.488 43.2603H260.58C261.745 43.2603 262.724 43.6449 263.505 44.426C264.286 45.207 264.671 46.1862 264.671 47.2586V48.6225C268.18 44.1345 272.866 41.7915 278.904 41.7915C285.922 41.7915 291.191 44.6241 294.898 50.0796C298.5 44.6241 303.874 41.7915 311.089 41.7915C316.941 41.7915 321.72 43.6449 325.521 47.1537C329.321 50.7673 331.279 55.2436 331.279 60.6058V89.958C331.279 91.1237 330.894 92.0096 330.113 92.7906C329.332 93.5717 328.458 93.9563 327.281 93.9563H323.189C322.023 93.9563 321.137 93.5717 320.356 92.7906C319.575 92.0096 319.191 91.1354 319.191 89.958V64.1145C319.191 61.0954 318.118 58.5542 316.172 56.5142C314.12 54.4626 311.59 53.3901 308.665 53.3901C305.739 53.3901 303.104 54.4626 301.064 56.5142C299.013 58.5658 298.045 61.0954 298.045 64.1145V89.958C298.045 91.1237 297.66 92.0096 296.879 92.7906C296.098 93.5717 295.119 93.9563 293.953 93.9563H289.862C288.696 93.9563 287.81 93.5717 287.029 92.7906C286.248 92.0096 285.864 91.1354 285.864 89.958V64.1145C285.864 61.0954 284.791 58.5542 282.844 56.5142C280.793 54.4626 278.263 53.3901 275.337 53.3901C272.411 53.3901 269.777 54.4626 267.737 56.5142C265.685 58.5658 264.718 61.0954 264.718 64.1145V89.958C264.718 91.1237 264.333 92.0096 263.552 92.7906C262.771 93.5717 261.792 93.9563 260.626 93.9563H256.535C255.369 93.9563 254.483 93.5717 253.702 92.7906C252.921 92.0096 252.536 91.1354 252.536 89.958L252.49 89.9697ZM216.971 47.2586C216.971 46.1862 217.356 45.207 218.137 44.426C218.918 43.6449 219.792 43.2603 220.969 43.2603H225.061C226.227 43.2603 227.206 43.6449 227.987 44.426C228.768 45.207 229.152 46.1862 229.152 47.2586V48.8206C231.88 45.0205 236.17 42.7707 241.824 41.9896C242.989 41.9896 243.875 42.3743 244.656 43.0621C245.437 43.8431 245.822 44.7174 245.822 45.8947V51.4551C245.822 53.4018 244.551 54.2877 242.022 54.2877H240.856C237.44 54.2877 234.62 55.4534 232.475 57.7032C230.236 59.9414 229.164 62.774 229.164 66.0846V89.9813C229.164 91.147 228.779 92.033 227.998 92.814C227.217 93.595 226.238 93.9797 225.072 93.9797H220.981C219.815 93.9797 218.929 93.595 218.148 92.814C217.367 92.033 216.983 91.1587 216.983 89.9813V47.2702L216.971 47.2586ZM192.748 30.9738C192.748 28.8289 193.435 26.9755 194.893 25.5184C196.35 24.0613 198.203 23.2802 200.453 23.2802C202.703 23.2802 204.451 24.0613 205.908 25.5184C207.366 26.9755 208.147 28.8289 208.147 30.9738C208.147 33.1187 207.366 35.0654 206.002 36.5342C204.545 37.9913 202.691 38.6791 200.441 38.6791C198.192 38.6791 196.35 37.9913 194.881 36.5342C193.412 35.0654 192.736 33.2236 192.736 30.9738H192.748ZM194.403 89.9697V47.2586C194.403 46.1862 194.788 45.207 195.569 44.426C196.35 43.6449 197.224 43.2603 198.401 43.2603H202.493C203.659 43.2603 204.638 43.6449 205.419 44.426C206.2 45.207 206.585 46.1862 206.585 47.2586V89.9697C206.585 91.1354 206.2 92.0213 205.419 92.8023C204.638 93.5833 203.659 93.968 202.493 93.968H198.401C197.236 93.968 196.35 93.5833 195.569 92.8023C194.788 92.0213 194.403 91.147 194.403 89.9697ZM158.127 53.9847C154.221 53.9847 151.004 55.4534 148.37 58.1812C145.735 61.0138 144.465 64.5225 144.465 68.6141C144.465 72.7057 145.735 76.3194 148.37 79.0471C151.004 81.8797 154.221 83.2436 158.127 83.2436C162.032 83.2436 165.144 81.8797 167.778 79.0471C170.413 76.3194 171.777 72.8106 171.777 68.6141C171.777 64.4176 170.413 61.0021 167.778 58.1812C165.144 55.4534 161.927 53.9847 158.127 53.9847ZM156.075 95.4251C149.151 95.4251 143.392 92.8839 138.811 87.8248C134.125 82.754 131.887 76.3194 131.887 68.6141C131.887 60.9089 134.125 54.5675 138.811 49.4967C143.392 44.426 149.151 41.7915 156.075 41.7915C162.125 41.7915 167.487 43.9364 171.975 48.028V47.2469C171.975 46.1745 172.266 45.1953 173.047 44.4143C173.828 43.6333 174.808 43.2486 175.973 43.2486H180.065C181.231 43.2486 182.117 43.6333 182.898 44.4143C183.679 45.1953 184.063 46.1745 184.063 47.2469V89.958C184.063 91.1237 183.679 92.0096 182.898 92.7906C182.117 93.5717 181.242 93.9563 180.065 93.9563H175.973C174.808 93.9563 173.828 93.5717 173.047 92.7906C172.266 92.0096 171.975 91.1354 171.975 89.958V89.177C167.487 93.3735 162.125 95.4135 156.075 95.4135V95.4251Z" fill="#002B69"/>
</g>
<defs>
<clipPath id="clip0_2454_30504">
<rect width="483.927" height="112" fill="white"/>
</clipPath>
</defs>
</svg>
